<?xml version="1.0" standalone="no"?>
<!DOCTYPE svg PUBLIC "-//W3C//DTD SVG 20010904//EN"
 "http://www.w3.org/TR/2001/REC-SVG-20010904/DTD/svg10.dtd">
<svg version="1.0" xmlns="http://www.w3.org/2000/svg"
 width="195.000000pt" height="200.000000pt" viewBox="0 0 195.000000 200.000000"
 preserveAspectRatio="xMidYMid meet">

<g transform="translate(0.000000,200.000000) scale(0.100000,-0.100000)"
fill="#000000" stroke="none">
<path d="M1239 1822 c-13 -10 -36 -24 -51 -31 -15 -8 -25 -18 -22 -22 3 -5 -1
-6 -8 -4 -8 3 -28 -5 -46 -18 -26 -20 -30 -26 -19 -36 8 -6 17 -8 20 -5 3 3
11 3 18 -1 8 -6 7 -10 -5 -17 -9 -5 -14 -13 -11 -18 3 -5 -6 -7 -20 -4 -14 2
-25 1 -24 -3 3 -19 -2 -34 -10 -29 -5 3 -14 -1 -21 -9 -7 -8 -18 -15 -24 -15
-6 0 -4 4 3 9 12 8 11 13 -9 29 -24 19 -50 19 -50 0 0 -5 -4 -7 -9 -4 -18 11
-133 -95 -162 -148 -24 -46 -24 -54 4 -51 35 4 35 4 41 23 2 9 2 -1 -1 -23
l-5 -40 31 50 c40 65 60 87 94 103 15 6 26 16 23 21 -3 5 1 12 10 15 10 4 13
2 8 -6 -10 -16 88 40 103 59 6 8 14 14 17 14 14 -2 105 56 99 63 -4 4 0 4 8 1
9 -3 22 1 29 10 7 8 19 15 27 15 7 0 16 7 19 15 4 8 10 12 15 9 5 -3 1 11 -8
30 -20 40 -31 43 -64 18z m20 -9 c-12 -15 -12 -16 3 -10 10 3 20 2 24 -4 10
-17 -2 -20 -31 -7 -25 11 -25 13 -9 25 24 18 29 16 13 -4z m-64 -33 c-3 -5 -2
-10 4 -10 5 0 13 5 16 10 3 6 11 10 16 10 6 0 7 -5 3 -11 -4 -7 0 -9 12 -5 11
3 26 1 34 -5 12 -8 9 -9 -9 -4 -15 5 -21 3 -17 -3 7 -12 -15 -19 -64 -20 -30
0 -32 1 -10 7 17 5 21 9 12 15 -11 7 -8 26 4 26 3 0 2 -4 -1 -10z m-60 -50 c3
-5 -1 -10 -10 -10 -9 0 -13 5 -10 10 3 6 8 10 10 10 2 0 7 -4 10 -10z m65 -16
c0 -2 -12 -4 -26 -4 -14 0 -23 4 -20 9 6 8 46 4 46 -5z m-203 -81 c2 -5 -8
-18 -22 -27 -14 -9 -25 -13 -25 -8 0 5 10 14 23 20 21 10 21 10 -6 8 -15 -2
-30 -6 -34 -9 -3 -4 -11 -7 -17 -7 -5 0 -1 6 9 14 11 8 23 12 27 10 4 -2 10 0
13 6 8 13 27 9 32 -7z m-96 -51 c-8 -3 -7 -8 6 -18 10 -7 13 -14 6 -14 -6 0
-14 4 -18 10 -3 5 -12 7 -21 3 -8 -3 -12 -8 -9 -12 6 -6 10 -7 35 -10 7 -1 6
-7 -2 -15 -9 -10 -15 -11 -20 -2 -5 6 -8 7 -9 1 -1 -5 -2 -14 -4 -20 -1 -5 -3
-17 -3 -24 -2 -12 -5 -12 -14 -3 -8 8 -15 9 -25 1 -9 -8 -13 -8 -13 -1 0 6 7
15 17 20 9 6 14 16 10 25 -5 13 2 23 46 63 6 7 16 9 22 6 5 -3 4 -7 -4 -10z
m36 -7 c0 -8 -4 -12 -9 -9 -4 3 -8 9 -8 15 0 5 4 9 8 9 5 0 9 -7 9 -15z"/>
<path d="M1210 1760 c0 -5 7 -10 16 -10 8 0 12 5 9 10 -3 6 -10 10 -16 10 -5
0 -9 -4 -9 -10z"/>
<path d="M846 1541 c-4 -5 -2 -12 3 -15 5 -4 12 -2 15 3 4 5 2 12 -3 15 -5 4
-12 2 -15 -3z"/>
<path d="M1446 1721 c-11 -4 -20 -15 -22 -25 -2 -13 2 -16 14 -11 26 10 55 15
48 8 -3 -3 0 -13 7 -21 10 -13 9 -15 -6 -9 -11 4 -16 3 -12 -3 3 -6 1 -10 -4
-10 -6 0 -11 7 -11 16 0 12 -4 14 -12 7 -7 -6 -29 -10 -48 -10 -19 0 -28 2
-18 4 9 2 19 11 22 19 4 12 2 12 -14 4 -10 -5 -22 -15 -25 -20 -4 -6 -11 -7
-17 -4 -7 5 -8 2 -3 -6 6 -10 4 -12 -7 -8 -18 7 -118 -47 -118 -63 0 -6 -7 -9
-15 -6 -8 4 -17 2 -20 -4 -9 -14 23 -23 38 -10 7 5 29 12 48 15 19 2 42 8 53
12 17 7 17 8 -5 21 l-24 14 24 -7 c16 -4 21 -3 17 5 -9 14 4 14 24 1 13 -8 13
-10 -1 -10 -9 0 -16 -7 -16 -15 0 -20 31 -14 105 24 51 26 59 34 55 52 -3 11
-12 23 -19 26 -8 3 -11 9 -8 14 6 11 -3 11 -30 0z m-56 -83 c0 -6 -7 -7 -16
-4 -9 3 -18 6 -20 6 -3 0 -3 4 1 10 7 11 35 2 35 -12z m60 15 c0 -5 -19 -19
-43 -32 -47 -26 -45 -21 5 15 38 26 38 27 38 17z m-154 -45 c3 -4 -2 -5 -13
-4 -10 2 -25 -2 -33 -8 -13 -9 -13 -9 -2 6 12 16 35 18 48 6z"/>
<path d="M1051 1702 c-6 -10 -9 -11 -5 -3 4 9 -2 7 -20 -5 -27 -17 -27 -17 -8
-37 16 -16 23 -17 38 -7 12 7 13 10 4 7 -9 -3 -25 2 -35 10 -17 14 -18 15 -2
9 13 -4 16 -2 11 7 -5 7 -1 7 10 -2 12 -10 20 -11 28 -3 6 6 16 8 23 6 7 -3
16 1 21 8 4 7 3 10 -1 5 -5 -4 -18 -1 -30 7 -19 12 -23 12 -34 -2z"/>
<path d="M1312 1583 c-6 -2 -10 -9 -6 -14 3 -5 0 -9 -5 -9 -6 0 -11 4 -11 9 0
11 -50 1 -74 -15 -15 -11 -21 -10 -33 2 -13 12 -18 12 -44 -7 -29 -20 -38 -39
-19 -39 6 0 13 7 16 15 4 9 16 13 35 11 55 -6 48 -21 -8 -17 -30 3 -38 -16
-12 -29 24 -13 41 -4 19 10 -9 6 -10 10 -3 10 6 0 15 -5 18 -11 5 -6 16 -4 33
7 15 10 48 28 75 41 26 13 47 28 47 33 0 11 -7 12 -28 3z m-37 -30 c-11 -3
-24 -9 -29 -14 -6 -5 -15 -9 -20 -9 -6 0 -2 7 8 15 11 8 29 14 40 14 20 -1 21
-1 1 -6z"/>
<path d="M1053 1476 c-43 -43 -64 -75 -62 -98 0 -7 4 -4 9 7 7 17 9 17 9 3 1
-11 9 -18 20 -18 10 0 21 8 25 18 3 9 9 22 12 29 3 7 -2 10 -13 9 -12 -2 -18
-11 -17 -26 1 -22 0 -22 -13 -4 -9 12 -10 20 -3 22 5 2 10 11 10 19 0 12 3 13
14 4 11 -9 15 -8 21 6 5 10 7 25 6 33 -2 11 0 12 9 4 9 -9 9 -17 1 -32 -8 -15
-8 -23 0 -27 6 -5 4 -11 -7 -19 -9 -7 -15 -18 -13 -25 3 -7 23 10 45 38 23 28
45 47 49 43 5 -4 5 -2 1 5 -3 7 -19 21 -34 31 l-27 20 -42 -42z m69 9 c12 0
21 -15 9 -15 -6 0 -16 -10 -22 -22 -9 -23 -9 -23 -5 1 3 14 0 32 -7 40 -10 12
-9 13 3 6 8 -6 18 -10 22 -10z"/>
<path d="M780 1432 c0 -7 -4 -10 -10 -7 -6 4 -10 -6 -10 -22 0 -27 3 -29 40
-31 33 -2 40 0 40 15 0 15 -2 16 -10 3 -8 -13 -10 -12 -10 4 0 11 -3 16 -7 12
-4 -3 -13 4 -20 16 -7 13 -12 17 -13 10z"/>
<path d="M805 1430 c-3 -5 -1 -10 4 -10 6 0 11 5 11 10 0 6 -2 10 -4 10 -3 0
-8 -4 -11 -10z"/>
<path d="M120 1240 c0 -5 10 -10 23 -10 18 0 19 2 7 10 -19 13 -30 13 -30 0z"/>
<path d="M81 1223 c-13 -14 -12 -18 4 -29 10 -8 28 -14 40 -14 12 0 26 -5 32
-11 6 -6 17 -9 23 -7 12 4 -15 20 -64 38 -23 9 -26 13 -16 25 17 20 -1 18 -19
-2z"/>
<path d="M170 1231 c0 -5 5 -13 10 -16 6 -3 10 -2 10 4 0 5 -4 13 -10 16 -5 3
-10 2 -10 -4z"/>
<path d="M254 1225 c-3 -8 -3 -19 1 -25 3 -5 1 -10 -6 -10 -7 0 -9 -3 -6 -7 4
-3 2 -12 -3 -18 -27 -33 69 -56 108 -27 21 17 55 92 46 101 -7 7 -24 -14 -28
-35 -9 -44 -12 -49 -31 -58 -20 -9 -63 -8 -78 1 -4 3 -3 11 4 19 6 8 8 14 4
14 -4 0 -2 6 4 13 6 8 8 17 4 21 -4 4 -1 11 7 16 13 8 12 10 -3 10 -10 0 -20
-7 -23 -15z"/>
<path d="M445 1230 c-4 -6 -7 -27 -8 -45 0 -19 -4 -32 -8 -29 -4 2 -9 -5 -12
-16 -6 -24 -3 -25 17 -4 9 8 16 29 16 45 0 43 22 36 50 -16 24 -44 55 -58 55
-25 0 8 4 20 8 27 4 6 4 18 1 27 -3 9 -2 16 4 16 5 0 12 7 16 15 3 10 -1 15
-11 15 -9 0 -14 -3 -11 -6 4 -3 0 -17 -7 -31 -8 -15 -12 -30 -9 -35 12 -19
-16 -6 -30 14 -9 12 -16 18 -17 13 -1 -6 -4 1 -8 15 -7 27 -35 38 -46 20z"/>
<path d="M644 1232 c3 -6 2 -12 -3 -14 -4 -1 -12 -14 -16 -27 -5 -17 -4 -22 6
-19 7 2 16 15 19 27 5 23 24 30 26 8 2 -24 16 -47 26 -41 5 3 9 0 7 -7 -3 -27
1 -39 14 -39 19 0 37 43 30 71 -4 20 -3 21 7 9 10 -13 11 -11 7 7 -3 12 0 24
7 27 6 2 3 5 -6 5 -16 1 -32 -39 -33 -81 0 -10 -4 -17 -10 -15 -5 1 -9 6 -7
11 1 4 -3 15 -10 23 -7 8 -17 25 -23 36 -6 12 -19 23 -29 25 -10 2 -16 0 -12
-6z"/>
<path d="M821 1218 c-5 -13 -5 -28 0 -34 6 -8 4 -14 -6 -18 -8 -3 -15 -14 -15
-24 0 -17 7 -19 59 -18 33 0 63 5 67 9 5 5 -17 7 -49 6 -31 -1 -60 1 -64 4 -3
4 -2 7 4 7 14 0 37 56 29 69 -4 5 2 12 11 14 14 4 12 5 -5 6 -15 1 -26 -7 -31
-21z"/>
<path d="M913 1233 c9 -2 25 -2 35 0 9 3 1 5 -18 5 -19 0 -27 -2 -17 -5z"/>
<path d="M999 1219 c-9 -17 -8 -23 2 -30 14 -8 5 -13 -16 -9 -5 1 -4 -4 3 -11
14 -15 16 -33 3 -25 -5 3 -11 -1 -15 -9 -3 -8 -2 -15 2 -15 14 0 32 24 32 42
0 31 48 23 68 -12 18 -32 27 -36 38 -18 5 7 3 8 -6 3 -10 -6 -12 -4 -7 9 4 9
3 14 -2 11 -5 -3 -12 -1 -16 5 -3 5 5 14 20 20 48 18 41 61 -10 59 -16 0 -14
-3 7 -11 24 -8 26 -12 14 -24 -8 -8 -19 -14 -24 -14 -6 0 -13 -6 -15 -12 -4
-10 -6 -10 -6 0 -1 6 -12 12 -25 12 -25 0 -43 35 -22 44 8 3 7 5 -1 5 -7 1
-17 -9 -24 -20z"/>
<path d="M1278 1233 c7 -3 16 -2 19 1 4 3 -2 6 -13 5 -11 0 -14 -3 -6 -6z"/>
<path d="M1331 1200 c-7 -22 -9 -46 -5 -52 4 -7 3 -8 -4 -4 -7 4 -12 1 -12 -9
0 -32 25 -8 34 33 6 30 13 40 27 39 9 -1 15 -5 13 -9 -7 -11 16 -49 26 -43 16
10 -20 65 -43 66 -21 0 -21 1 -2 9 20 8 20 9 -1 9 -16 1 -24 -8 -33 -39z"/>
<path d="M1455 1230 c-3 -5 -3 -14 0 -20 3 -5 2 -10 -3 -10 -17 0 -21 -38 -5
-44 11 -5 13 -1 8 15 -5 16 -4 19 5 14 10 -6 11 -1 6 19 -4 18 -3 25 4 21 5
-3 10 -1 10 4 0 14 -17 14 -25 1z"/>
<path d="M1535 1231 c3 -5 1 -12 -5 -16 -6 -4 -7 -11 -4 -17 4 -6 2 -13 -3
-17 -6 -3 -13 -19 -17 -34 -7 -29 -7 -29 34 -24 22 2 44 8 48 12 4 4 -9 5 -29
2 l-37 -5 14 34 c8 19 11 34 7 34 -5 1 3 10 16 20 l23 20 -26 0 c-15 0 -25 -4
-21 -9z"/>
<path d="M1615 1226 c11 -8 26 -16 33 -16 9 0 2 -15 -17 -39 -26 -33 -28 -38
-11 -34 10 3 19 8 18 12 -2 19 3 31 14 29 17 -4 16 26 -2 43 -8 8 -24 15 -35
17 l-20 4 20 -16z"/>
<path d="M1706 1190 c-20 -61 -20 -70 -1 -70 13 0 14 4 4 22 -10 18 -9 20 5
15 9 -4 16 -2 16 3 0 6 -5 10 -12 10 -7 0 -6 6 4 18 25 29 28 40 14 45 -10 4
-19 -9 -30 -43z"/>
<path d="M1842 1234 c4 -3 -7 -18 -22 -32 -16 -15 -31 -34 -32 -42 -2 -8 -12
-20 -23 -27 -13 -8 -15 -12 -6 -13 8 0 23 7 33 16 25 24 90 24 96 2 2 -10 12
-18 21 -17 10 0 11 2 3 6 -6 2 -9 9 -6 14 7 12 -15 69 -27 69 -12 0 -11 -17 1
-25 29 -18 0 -28 -53 -18 l-28 5 26 24 c14 13 35 24 46 24 29 0 23 15 -8 18
-14 1 -24 -1 -21 -4z"/>
<path d="M1252 1191 c-12 -34 -5 -81 9 -59 12 19 11 30 -2 22 -7 -4 -10 -1 -7
7 3 8 11 13 18 11 7 -2 10 3 7 11 -3 8 0 20 6 26 8 8 7 11 -5 11 -9 0 -21 -13
-26 -29z"/>
<path d="M868 1183 c6 -2 18 -2 25 0 6 3 1 5 -13 5 -14 0 -19 -2 -12 -5z"/>
<path d="M70 1138 c30 -24 100 -23 100 3 0 5 -12 4 -26 -1 -26 -10 -77 -3 -69
9 2 4 -3 8 -12 8 -12 0 -11 -5 7 -19z"/>
<path d="M610 1140 c-9 -16 -8 -20 5 -20 8 0 15 2 15 4 0 2 3 11 6 20 9 23
-13 20 -26 -4z"/>
<path d="M1425 1130 c-3 -5 1 -10 9 -10 9 0 16 5 16 10 0 6 -4 10 -9 10 -6 0
-13 -4 -16 -10z"/>
<path d="M863 955 c-15 -23 -18 -37 -11 -41 7 -5 8 -2 3 7 -5 8 -4 10 0 6 5
-4 10 -14 11 -23 2 -12 0 -13 -13 -2 -13 10 -18 9 -34 -10 -10 -13 -22 -24
-26 -25 -4 -1 -7 -6 -5 -11 2 -5 -4 -6 -12 -3 -9 4 -22 0 -30 -8 -8 -8 -17
-15 -20 -15 -4 0 -25 -12 -47 -26 l-41 -26 -28 27 c-35 34 -49 16 -20 -25 12
-17 24 -30 28 -30 4 0 16 -13 27 -29 21 -32 36 -33 28 -2 -3 11 2 21 11 24 16
6 22 -4 9 -17 -15 -14 -14 -56 2 -62 8 -3 15 -10 15 -15 0 -6 10 -23 22 -39
17 -23 27 -28 45 -24 17 5 28 1 37 -12 13 -17 15 -17 49 6 37 25 32 45 -8 34
-14 -4 -16 -3 -7 4 11 7 10 11 -4 16 -9 3 -14 9 -11 13 4 3 13 0 22 -7 9 -7
18 -10 21 -7 4 3 13 0 20 -8 16 -15 33 -6 126 66 45 35 140 125 123 116 -6 -3
-10 9 -11 28 0 19 4 33 9 32 5 -1 15 14 23 33 l13 35 -2 -32 c-1 -18 -5 -33
-9 -33 -13 0 -29 -38 -18 -45 14 -9 38 46 48 109 l9 56 -45 0 -45 0 6 -35 c4
-23 2 -35 -6 -35 -8 0 -7 -4 2 -9 12 -8 12 -14 4 -33 -7 -13 -12 -17 -12 -10
-1 10 -4 10 -15 0 -14 -13 -12 -33 3 -24 3 3 7 -3 8 -12 1 -9 3 -26 5 -36 2
-10 -4 -21 -12 -24 -13 -5 -13 -3 -1 12 12 14 12 16 -3 10 -10 -4 -14 -13 -11
-24 6 -17 -17 -35 -29 -23 -11 11 -6 22 7 17 15 -5 17 22 3 44 -7 11 -1 16 17
13 4 0 7 4 7 9 0 19 -18 10 -44 -21 -14 -17 -26 -28 -26 -24 0 3 -27 -15 -60
-41 -33 -26 -60 -47 -60 -48 0 -1 12 -2 26 -2 18 -2 24 2 20 12 -3 7 0 16 6
20 6 4 8 3 4 -4 -3 -6 -1 -14 5 -18 7 -4 10 -3 7 2 -3 5 -2 18 3 29 7 19 8 19
8 -3 1 -12 8 -25 16 -28 16 -6 11 -24 -6 -24 -6 0 -7 5 -3 12 5 8 2 9 -12 3
-10 -4 -36 -9 -56 -9 -36 -2 -137 -52 -138 -69 0 -4 9 -3 21 3 11 7 23 9 26 7
4 -4 -29 -19 -47 -22 -3 0 -12 -4 -20 -10 -13 -7 -13 -6 -2 7 10 13 5 24 -29
67 -34 43 -38 52 -24 57 9 4 14 13 10 22 -4 11 -2 12 7 4 10 -8 20 -5 38 10
14 11 18 16 10 12 -8 -4 -12 -4 -8 1 4 4 2 15 -5 24 -10 12 -8 12 12 -1 22
-15 26 -15 50 -1 14 9 43 32 63 51 35 33 36 36 21 58 -8 13 -23 24 -32 24 -14
1 -13 3 3 15 15 11 22 12 34 3 17 -15 44 -20 36 -7 -3 5 0 9 5 9 25 0 9 20
-16 21 -25 2 -24 2 7 9 35 7 35 7 -10 8 -41 1 -47 -2 -67 -33z m274 3 c-3 -8
-6 -5 -6 6 -1 11 2 17 5 13 3 -3 4 -12 1 -19z m14 -49 c-5 -13 -10 -19 -10
-12 -1 15 10 45 15 40 3 -2 0 -15 -5 -28z m-314 -16 c-4 -3 -2 -12 5 -20 6 -8
7 -13 2 -12 -19 3 -34 -1 -34 -12 0 -5 5 -7 10 -4 6 3 10 1 10 -6 0 -8 7 -5
20 6 11 10 18 21 15 24 -2 4 5 7 15 7 24 0 14 -12 -45 -55 -25 -18 -45 -27
-45 -22 0 6 4 11 8 11 5 0 9 7 9 15 0 10 -6 13 -18 10 -9 -3 -20 -2 -23 3 -3
6 2 9 12 8 9 0 16 5 15 12 -2 6 0 11 5 11 16 -3 32 1 31 9 -2 13 1 22 8 22 3
0 3 -3 0 -7z m-85 -70 c-7 -3 -17 -16 -22 -29 -10 -24 -40 -34 -40 -12 0 6 -7
4 -18 -5 -10 -10 -25 -17 -33 -16 -11 0 -11 2 1 6 8 3 22 11 30 19 20 17 73
44 85 43 6 0 4 -3 -3 -6z m-132 -45 c0 -4 -5 -8 -11 -8 -5 0 -8 4 -5 9 3 5 -1
11 -9 15 -8 3 -15 11 -15 17 0 7 8 5 20 -6 11 -10 20 -22 20 -27z m431 9 c-10
-9 -11 -8 -5 6 3 10 9 15 12 12 3 -3 0 -11 -7 -18z m-29 -24 c-1 -4 6 -15 14
-24 13 -14 13 -18 -1 -29 -12 -10 -18 -11 -28 -1 -9 10 -8 11 5 6 20 -8 19 19
-2 38 -11 10 -12 8 -6 -8 6 -16 5 -17 -5 -8 -10 10 -9 16 1 28 13 15 22 15 22
-2z m-286 -130 c1 -7 -2 -11 -7 -7 -5 3 -9 12 -9 20 0 8 -7 17 -15 20 -8 4
-12 10 -9 16 6 10 37 -28 40 -49z m150 39 c-6 -11 54 -9 71 1 6 4 15 3 18 -3
4 -6 3 -10 -2 -9 -4 1 -10 0 -13 -1 -3 -1 -29 -3 -59 -5 -48 -2 -52 -1 -36 11
21 16 28 18 21 6z m31 -44 c-3 -8 -6 -5 -6 6 -1 11 2 17 5 13 3 -3 4 -12 1
-19z m-67 -42 c-7 -7 -13 -7 -20 0 -6 6 -3 10 10 10 13 0 16 -4 10 -10z"/>
<path d="M356 928 c5 -8 2 -9 -10 -5 -9 4 -32 0 -49 -9 -43 -22 -44 -23 -27
-35 11 -8 9 -9 -8 -4 -17 5 -32 -2 -61 -27 -21 -18 -55 -46 -75 -61 -20 -16
-34 -32 -31 -37 3 -5 1 -11 -5 -15 -13 -8 -13 -65 1 -123 14 -57 17 -61 30
-42 8 11 9 5 6 -22 -4 -25 -1 -41 9 -49 8 -6 12 -14 10 -17 -8 -7 23 -62 35
-62 6 0 7 -6 3 -12 -5 -9 -2 -9 9 1 15 12 17 11 17 -8 0 -14 -4 -20 -12 -15
-6 4 4 -14 21 -40 19 -27 38 -45 46 -42 7 2 18 -7 24 -22 10 -24 10 -25 -2 -9
-8 9 -17 17 -21 17 -4 0 14 -25 40 -55 34 -39 54 -54 70 -53 25 2 23 6 -21 53
-87 91 -108 121 -156 212 -18 34 -37 59 -42 56 -5 -3 -6 4 -2 18 7 23 7 24 -9
4 -16 -21 -22 -10 -7 14 6 9 0 37 -15 78 -27 70 -28 77 -15 69 5 -3 11 8 13
24 3 17 2 30 -2 30 -4 0 -7 7 -7 14 0 16 54 43 64 32 3 -3 -1 -6 -9 -6 -9 0
-22 -8 -29 -17 -12 -16 -12 -17 1 -7 8 6 32 14 52 18 21 4 40 12 44 18 5 8 -2
9 -22 4 -27 -7 -28 -7 -11 12 9 10 14 22 10 27 -5 4 0 5 9 2 10 -3 20 -1 24 5
5 7 2 8 -6 3 -9 -5 -11 -4 -6 4 4 6 11 9 16 6 5 -3 18 0 29 7 16 10 18 15 8
27 -10 12 -9 13 10 3 17 -9 25 -9 35 1 17 15 85 19 111 5 15 -7 22 -7 29 3 7
11 8 11 6 -1 -2 -8 2 -16 7 -16 6 -1 9 2 7 8 -1 5 2 6 8 3 6 -4 9 -10 6 -13
-4 -3 6 -18 21 -34 19 -20 30 -25 39 -17 10 8 6 17 -19 38 -39 34 -110 71
-134 70 -16 0 -16 -1 2 -8 17 -7 16 -9 -10 -14 -35 -6 -46 0 -25 13 12 8 10
10 -8 10 -15 0 -21 -4 -16 -12z m-26 -24 c0 -8 -19 -13 -24 -6 -3 5 1 9 9 9 8
0 15 -2 15 -3z m230 -67 c0 -6 -9 0 -20 13 -11 13 -20 25 -20 28 0 3 9 -3 20
-13 11 -10 20 -23 20 -28z m-364 -22 c-11 -8 -25 -15 -30 -15 -6 1 0 7 14 15
32 19 40 18 16 0z m-92 -171 c3 -8 2 -12 -4 -9 -6 3 -10 10 -10 16 0 14 7 11
14 -7z m91 -204 c3 -6 -1 -7 -9 -4 -18 7 -21 14 -7 14 6 0 13 -4 16 -10z m35
-80 c6 -11 8 -20 6 -20 -3 0 -10 9 -16 20 -6 11 -8 20 -6 20 3 0 10 -9 16 -20z
m85 -100 c-3 -5 -1 -10 6 -10 7 0 10 -3 6 -6 -9 -9 -28 6 -22 17 4 5 8 9 11 9
3 0 2 -4 -1 -10z"/>
<path d="M906 916 c7 -19 20 -21 30 -3 4 6 4 9 -1 5 -4 -4 -14 -3 -22 4 -11 8
-12 7 -7 -6z"/>
<path d="M1085 810 c-3 -5 -1 -10 4 -10 6 0 11 5 11 10 0 6 -2 10 -4 10 -3 0
-8 -4 -11 -10z"/>
<path d="M230 775 c-14 -8 -20 -14 -14 -15 5 0 19 7 30 15 24 18 16 19 -16 0z"/>
<path d="M274 772 c4 -8 0 -12 -11 -12 -12 0 -6 -8 20 -25 20 -14 38 -24 40
-23 1 2 20 -16 41 -39 21 -24 42 -40 47 -37 5 3 9 -1 9 -9 0 -22 34 -49 47
-36 7 7 12 5 17 -6 3 -9 2 -13 -4 -10 -18 11 -10 -9 15 -40 13 -16 24 -24 25
-17 0 6 -4 12 -9 12 -5 0 -12 8 -15 17 -6 15 -4 14 14 -2 13 -11 18 -25 14
-37 -3 -12 0 -18 10 -18 29 0 24 17 -22 77 -48 62 -59 70 -70 57 -4 -4 -1 -4
7 1 9 5 12 4 7 -3 -4 -7 -2 -12 4 -12 6 0 8 -5 4 -11 -8 -13 -28 16 -29 41 0
8 -7 14 -15 12 -8 -2 -12 0 -8 4 4 4 3 13 -3 21 -10 11 -15 11 -27 1 -13 -11
-15 -10 -10 9 4 17 -3 27 -36 50 -58 41 -71 48 -62 35z m51 -50 c-3 -3 -11 0
-18 7 -9 10 -8 11 6 5 10 -3 15 -9 12 -12z m45 -17 c0 -12 -19 -12 -23 0 -4 9
-1 12 9 8 7 -3 14 -7 14 -8z m27 -40 c0 -8 -4 -12 -9 -9 -5 3 -6 10 -3 15 9
13 12 11 12 -6z"/>
<path d="M270 575 c-13 -16 -9 -51 7 -48 6 1 9 -12 6 -33 -2 -21 3 -44 12 -57
8 -12 15 -16 15 -9 0 6 5 12 11 12 5 0 7 -5 3 -12 -4 -7 -3 -8 4 -4 8 5 7 17
-5 41 -9 19 -19 35 -22 35 -3 0 -7 11 -7 25 -1 14 2 25 8 25 5 0 6 5 3 11 -5
6 -12 4 -22 -8 -13 -17 -13 -16 -4 4 8 15 17 20 33 16 19 -4 20 -3 8 6 -21 15
-35 14 -50 -4z m27 -117 c-3 -8 -6 -5 -6 6 -1 11 2 17 5 13 3 -3 4 -12 1 -19z"/>
<path d="M767 573 c-6 -12 49 -94 57 -86 4 4 4 0 0 -10 -3 -10 -1 -17 6 -17 6
0 8 -4 5 -10 -3 -5 -2 -10 4 -10 15 0 7 67 -11 87 -8 10 -18 26 -21 36 -6 17
-32 24 -40 10z m47 -53 c10 -13 9 -13 -6 -1 -10 7 -17 23 -17 35 1 20 2 20 6
1 3 -11 10 -27 17 -35z"/>
<path d="M329 553 c-10 -12 -10 -14 -1 -9 7 4 12 2 12 -6 0 -9 3 -9 8 -2 5 8
13 5 27 -8 16 -16 17 -18 2 -13 -9 4 -17 3 -17 -3 0 -16 18 -24 25 -12 4 6 11
7 17 4 7 -4 6 -9 -3 -14 -9 -6 -9 -12 4 -25 12 -12 17 -13 17 -3 0 10 3 9 10
-2 5 -8 10 -11 10 -6 0 18 -42 76 -70 96 -26 18 -29 19 -41 3z"/>
<path d="M562 478 c2 -7 -4 -12 -12 -10 -12 2 -11 -1 2 -11 10 -8 14 -18 10
-22 -4 -5 -2 -5 4 -2 8 4 14 -6 18 -29 5 -26 10 -33 19 -25 9 7 13 5 13 -9 0
-10 -4 -17 -7 -14 -4 2 0 -14 9 -36 11 -26 22 -38 31 -35 10 4 11 2 3 -8 -11
-13 -2 -81 13 -95 4 -4 4 5 0 19 -4 16 -2 30 4 33 7 5 11 -8 11 -38 0 -35 5
-48 22 -60 18 -13 19 -16 6 -16 -9 0 -24 10 -32 22 -14 19 -16 20 -16 5 0 -10
-11 -29 -25 -43 -20 -20 -32 -24 -54 -19 -17 3 -32 2 -36 -4 -3 -6 -11 -11
-17 -11 -6 0 -6 6 2 15 11 13 10 14 -5 9 -13 -5 -16 -4 -11 4 5 8 1 10 -10 5
-10 -3 -15 -2 -12 3 4 5 -7 10 -24 11 -25 2 -28 0 -18 -12 7 -8 16 -12 21 -9
5 3 9 1 9 -4 0 -15 63 -38 110 -40 32 -2 52 3 70 18 20 16 22 20 8 20 -10 0
-18 -5 -18 -11 0 -5 -4 -7 -10 -4 -17 11 13 33 35 25 10 -4 24 -3 30 2 5 4 28
22 50 39 22 17 39 38 37 46 -2 11 2 14 12 10 8 -3 20 1 27 9 10 13 10 17 -2
26 -11 8 -11 9 3 4 22 -7 39 23 31 53 -4 17 -1 24 16 28 26 7 27 32 4 99 -10
29 -19 42 -21 32 -2 -10 -8 -18 -13 -18 -6 0 -7 -5 -4 -10 4 -6 10 -8 15 -5 4
3 13 -9 19 -27 14 -40 14 -48 -2 -23 -10 18 -12 16 -19 -25 -5 -25 -9 -53 -9
-62 0 -10 -5 -21 -11 -24 -7 -5 -8 -2 -4 7 4 8 0 5 -8 -5 -9 -11 -14 -29 -10
-40 4 -16 3 -17 -4 -7 -9 12 -12 12 -25 -1 -12 -11 -13 -18 -4 -27 8 -8 8 -11
0 -11 -7 0 -15 5 -18 10 -10 16 -25 1 -18 -17 5 -13 2 -15 -12 -10 -15 6 -16
5 -5 -8 15 -17 7 -19 -21 -5 -13 8 -19 21 -19 47 0 48 -39 165 -53 156 -6 -3
-7 -1 -3 6 4 6 0 24 -10 39 -10 15 -17 31 -16 35 1 5 -2 5 -8 2 -7 -4 -10 0
-8 11 2 12 -2 18 -11 16 -8 -2 -11 3 -8 12 4 9 2 18 -4 21 -5 4 -8 1 -7 -7z
m123 -358 c3 -5 2 -10 -4 -10 -5 0 -13 5 -16 10 -3 6 -2 10 4 10 5 0 13 -4 16
-10z m-90 -58 c-3 -3 -11 0 -18 7 -9 10 -8 11 6 5 10 -3 15 -9 12 -12z"/>
<path d="M440 435 c-7 -9 -9 -15 -4 -14 19 3 28 -2 16 -10 -10 -6 -10 -10 3
-21 13 -11 14 -10 9 5 -5 13 -4 16 4 11 16 -10 15 6 -1 28 -12 16 -14 17 -27
1z"/>
<path d="M343 407 c3 -10 2 -17 -2 -17 -5 0 -12 6 -14 13 -3 7 -6 8 -6 1 -1
-6 16 -29 37 -51 20 -21 34 -35 30 -29 -13 17 -9 38 5 30 8 -5 8 -2 -2 9 -18
22 -32 22 -25 0 5 -15 4 -16 -5 -3 -6 8 -8 22 -5 32 2 9 -1 20 -7 24 -9 5 -10
2 -6 -9z"/>
<path d="M476 375 c-9 -24 -7 -37 3 -31 5 4 7 -3 4 -14 -3 -11 0 -20 6 -20 6
0 11 -6 11 -14 0 -17 -34 -27 -51 -14 -11 8 -11 9 2 5 9 -3 22 -1 30 4 12 7
11 9 -2 9 -9 0 -29 10 -45 22 l-29 22 20 -24 c17 -20 18 -23 3 -17 -31 11 -19
-9 16 -28 34 -19 35 -19 56 0 13 11 18 25 14 34 -3 9 -7 23 -7 31 0 8 -5 23
-12 33 -11 16 -13 16 -19 2z"/>
<path d="M877 303 c-4 -3 -7 -11 -7 -17 0 -6 5 -5 12 2 6 6 9 14 7 17 -3 3 -9
2 -12 -2z"/>
<path d="M374 169 c-3 -5 -1 -9 4 -9 4 0 18 -9 30 -20 12 -12 23 -16 27 -10 4
7 14 6 28 -1 12 -6 6 2 -13 18 -35 28 -66 37 -76 22z m61 -27 c-3 -3 -11 0
-18 7 -9 10 -8 11 6 5 10 -3 15 -9 12 -12z"/>
</g>
</svg>
